<?xml version="1.0" standalone="no"?>
<!DOCTYPE svg PUBLIC "-//W3C//DTD SVG 1.0//EN" "http://www.w3.org/TR/2001/REC-SVG-20010904/DTD/svg10.dtd">
<svg xmlns="http://www.w3.org/2000/svg" xmlns:xlink="http://www.w3.org/1999/xlink" id="body_1" width="172" height="60">

<g transform="matrix(0.11353135 0 0 0.11353135 -0 6.1584144)">
    <path d="M215.559 187.852C 211.849 187.852 208.29 186.426 205.653 183.885L205.653 183.885L157.296 137.14C 145.757 125.911 137.896 111.6 134.708 96.0178C 131.519 80.4356 133.147 64.2821 139.384 49.601C 145.621 34.92 156.188 22.3711 169.747 13.5419C 183.307 4.7127 199.25 0 215.559 0C 231.868 0 247.811 4.7127 261.371 13.5419C 274.93 22.3711 285.497 34.92 291.734 49.601C 297.971 64.2821 299.598 80.4356 296.41 96.0178C 293.222 111.6 285.361 125.911 273.822 137.14L273.822 137.14L225.465 183.885C 222.828 186.426 219.268 187.852 215.559 187.852zM98.559 288.766C 114.554 285.66 129.243 278.002 140.769 266.76L140.769 266.76L189.032 219.65C 191.641 217.081 193.105 213.613 193.105 209.999C 193.105 206.385 191.641 202.917 189.032 200.348L189.032 200.348L140.769 153.238C 129.243 141.997 114.554 134.338 98.559 131.232C 82.5644 128.126 65.9834 129.712 50.9139 135.788C 35.8444 141.864 22.9634 152.159 13.9006 165.369C 4.83779 178.578 0.00038147 194.11 0.00038147 209.999C 0.00038147 225.888 4.83779 241.42 13.9006 254.63C 22.9634 267.84 35.8444 278.134 50.9139 284.21C 65.9834 290.287 82.5644 291.872 98.559 288.766zM406.876 152.872C 391.382 137.896 370.44 129.492 348.613 129.492C 326.786 129.492 305.844 137.896 290.35 152.872L290.35 152.872L241.993 199.983C 239.384 202.552 237.92 206.02 237.92 209.634C 237.92 213.248 239.384 216.716 241.993 219.284L241.993 219.284L290.35 266.395C 297.905 274.259 307.006 280.562 317.112 284.93C 327.218 289.297 338.123 291.64 349.178 291.818C 360.232 291.996 371.21 290.006 381.459 285.967C 391.708 281.927 401.019 275.921 408.836 268.305C 416.654 260.688 422.82 251.618 426.966 241.633C 431.112 231.649 433.155 220.953 432.972 210.184C 432.789 199.414 430.384 188.791 425.901 178.945C 421.418 169.099 414.948 160.233 406.876 152.872zM215.369 231.782C 219.079 231.782 222.639 233.208 225.276 235.75L225.276 235.75L273.633 282.86C 285.171 294.089 293.032 308.4 296.221 323.982C 299.409 339.564 297.782 355.718 291.544 370.399C 285.307 385.08 274.74 397.629 261.181 406.458C 247.622 415.287 231.679 420 215.369 420C 199.06 420 183.117 415.287 169.558 406.458C 155.998 397.629 145.432 385.08 139.194 370.399C 132.957 355.718 131.33 339.564 134.518 323.982C 137.707 308.4 145.567 294.089 157.106 282.86L157.106 282.86L205.463 235.75C 208.1 233.208 211.66 231.782 215.369 231.782z" stroke="none" fill="none" />
    <path d="M532.599 317.353L532.599 94.79L598.327 94.79C 647.248 94.79 678.234 118.482 678.234 162.117C 678.234 205.751 647.811 229.444 598.797 229.444L598.797 229.444L565.651 229.444L565.651 317.353L532.599 317.353zM598.327 199.805C 627.529 199.805 645.276 186.267 645.276 162.208C 645.276 138.15 627.154 124.611 598.327 124.611L598.327 124.611L565.651 124.611L565.651 199.805L598.327 199.805z" stroke="none" fill="#15203A" fill-rule="nonzero" />
    <path d="M722.274 247.555C 724.872 260.226 731.819 271.658 741.973 279.971C 752.128 288.284 764.884 292.982 778.143 293.293C 788.05 293.37 797.791 290.808 806.312 285.883C 814.939 280.935 822.016 273.787 826.782 265.21L826.782 265.21L858.707 265.21C 852.649 281.645 841.557 295.872 826.93 305.966C 812.303 316.06 794.847 321.535 776.922 321.651C 753.909 320.945 732.065 311.605 715.951 295.583C 699.836 279.56 690.698 258.093 690.443 235.663C 690.443 182.881 731.007 146.29 776.171 146.29C 793.654 146.019 810.814 150.895 825.405 160.279C 839.997 169.664 851.342 183.121 857.956 198.889C 862.302 209.413 864.502 220.66 864.435 232.004C 864.543 237.234 864.229 242.464 863.496 247.646L863.496 247.646L722.274 247.555zM832.322 223.313C 830.879 210.014 824.501 197.686 814.387 188.644C 804.221 179.689 791.004 174.732 777.298 174.732C 763.593 174.732 750.375 179.689 740.209 188.644C 730.095 197.686 723.717 210.014 722.274 223.313L722.274 223.313L832.322 223.313z" stroke="none" fill="#15203A" fill-rule="nonzero" />
    <path d="M899.93 317.353L899.93 179.223L876.925 179.223L876.925 150.682L899.93 150.682L899.93 94.79L931.949 94.79L931.949 150.682L959.836 150.682L959.836 179.223L931.949 179.223L931.949 317.353L899.93 317.353z" stroke="none" fill="#15203A" fill-rule="nonzero" />
    <path d="M1121.15 317.351L1121.15 291.463L1120.59 291.463C 1114.59 301.018 1106.09 308.842 1095.95 314.132C 1085.82 319.422 1074.42 321.986 1062.94 321.559C 1051.27 321.876 1039.66 319.928 1028.78 315.831C 1017.89 311.734 1007.96 305.569 999.54 297.695C 991.125 289.82 984.402 280.394 979.762 269.964C 975.122 259.534 972.658 248.31 972.513 236.943C 972.513 183.704 1011.57 146.473 1061.62 146.473C 1073.09 145.862 1084.52 148.103 1094.86 152.983C 1105.19 157.864 1114.08 165.225 1120.68 174.373L1120.68 174.373L1120.68 150.955L1152.7 150.955L1152.7 317.351L1121.15 317.351zM1121.81 234.382C 1122.12 226.629 1120.8 218.895 1117.95 211.651C 1115.1 204.406 1110.77 197.8 1105.22 192.233C 1099.67 186.665 1093.02 182.253 1085.68 179.262C 1078.33 176.27 1070.43 174.763 1062.47 174.831C 1050.36 174.521 1038.42 177.737 1028.2 184.065C 1017.97 190.394 1009.91 199.549 1005.05 210.361C 1000.19 221.172 998.748 233.15 1000.91 244.765C 1003.07 256.379 1008.73 267.102 1017.18 275.565C 1025.63 284.028 1036.47 289.845 1048.33 292.275C 1060.18 294.705 1072.51 293.637 1083.74 289.207C 1094.97 284.777 1104.59 277.186 1111.37 267.405C 1118.15 257.623 1121.79 246.094 1121.81 234.29L1121.81 234.29L1121.81 234.382z" stroke="none" fill="#15203A" fill-rule="nonzero" />
    <path d="M1227.82 94.79L1195.89 94.79L1195.89 317.353L1227.82 317.353L1227.82 94.79z" stroke="none" fill="#15203A" fill-rule="nonzero" />
    <path d="M1292.42 247.555C 1295.05 260.294 1302.07 271.774 1312.32 280.093C 1322.57 288.412 1335.42 293.069 1348.76 293.294C 1358.67 293.389 1368.41 290.826 1376.93 285.884C 1385.36 280.842 1392.26 273.707 1396.93 265.21L1396.93 265.21L1428.85 265.21C 1422.84 281.653 1411.77 295.891 1397.15 305.99C 1382.53 316.088 1365.08 321.556 1347.16 321.651C 1324.13 320.968 1302.26 311.639 1286.13 295.614C 1270 279.589 1260.85 258.109 1260.59 235.663C 1260.59 183.064 1301.15 146.382 1346.32 146.382C 1357.9 146.232 1369.39 148.347 1380.12 152.602C 1396.29 159.064 1410.09 170.102 1419.75 184.29C 1429.41 198.478 1434.48 215.163 1434.3 232.187C 1434.41 237.417 1434.09 242.648 1433.36 247.83L1433.36 247.83L1292.42 247.555zM1402.47 223.314C 1401.09 210.032 1394.69 197.723 1384.53 188.772C 1374.36 179.821 1361.15 174.865 1347.44 174.865C 1333.74 174.865 1320.53 179.821 1310.36 188.772C 1300.19 197.723 1293.8 210.032 1292.42 223.314L1292.42 223.314L1402.47 223.314z" stroke="none" fill="#15203A" fill-rule="nonzero" />
    <path d="M1442.15 105.236C 1442.48 105.236 1442.77 105.31 1443.02 105.458C 1443.27 105.607 1443.47 105.812 1443.62 106.074C 1443.76 106.336 1443.84 106.63 1443.84 106.955C 1443.84 107.28 1443.76 107.573 1443.62 107.835C 1443.47 108.092 1443.27 108.294 1443.02 108.443C 1442.77 108.591 1442.48 108.665 1442.15 108.665C 1441.83 108.665 1441.54 108.591 1441.28 108.443C 1441.03 108.294 1440.82 108.092 1440.68 107.835C 1440.53 107.573 1440.46 107.28 1440.46 106.955C 1440.46 106.63 1440.53 106.336 1440.68 106.074C 1440.82 105.812 1441.03 105.607 1441.28 105.458C 1441.54 105.31 1441.83 105.236 1442.15 105.236zM1442.15 108.383C 1442.56 108.383 1442.9 108.249 1443.15 107.981C 1443.4 107.713 1443.53 107.371 1443.53 106.955C 1443.53 106.539 1443.4 106.197 1443.15 105.929C 1442.9 105.661 1442.56 105.527 1442.15 105.527C 1441.74 105.527 1441.4 105.661 1441.15 105.929C 1440.89 106.197 1440.77 106.539 1440.77 106.955C 1440.77 107.371 1440.89 107.713 1441.15 107.981C 1441.4 108.249 1441.74 108.383 1442.15 108.383zM1442.9 106.578C 1442.9 106.721 1442.86 106.841 1442.78 106.938C 1442.7 107.029 1442.59 107.089 1442.45 107.117L1442.45 107.117L1442.96 107.853L1442.52 107.861L1442.05 107.134L1441.86 107.134L1441.86 107.861L1441.49 107.861L1441.49 106.023L1442.28 106.023C 1442.47 106.023 1442.62 106.074 1442.73 106.177C 1442.84 106.274 1442.9 106.407 1442.9 106.578zM1441.86 106.826L1442.26 106.826C 1442.34 106.826 1442.4 106.807 1442.45 106.767C 1442.51 106.727 1442.53 106.667 1442.53 106.587C 1442.53 106.507 1442.51 106.45 1442.45 106.416C 1442.4 106.376 1442.34 106.356 1442.26 106.356L1442.26 106.356L1441.86 106.356L1441.86 106.826z" stroke="none" fill="#15203A" fill-rule="nonzero" />
</g>
</svg>